<?xml version="1.0" encoding="utf-8"?>
<!-- Generator: Adobe Illustrator 25.2.0, SVG Export Plug-In . SVG Version: 6.00 Build 0)  -->
<svg version="1.1" id="Layer_1" xmlns="http://www.w3.org/2000/svg" xmlns:xlink="http://www.w3.org/1999/xlink" x="0px" y="0px"
	 viewBox="0 0 72 72" style="enable-background:new 0 0 72 72;" xml:space="preserve">
<style type="text/css">
	.st0{fill:none;}
	.st1{fill:#E1EAF8;}
	.st2{fill:#F1F4FB;}
	.st3{fill:#363A5A;}
	.st4{fill:#7E96DD;}
	.st5{fill:#FFFFFF;}
</style>
<g>
	<g>
		<rect class="st0" width="72" height="72"/>
		<rect x="4" y="4" class="st0" width="64" height="64"/>
	</g>
</g>
<g>
	<path class="st1" d="M33.5,37.8v-5.6v-8.5c0-1.6-1.3-2.8-2.8-2.8h-8.5c-1.6,0-2.8,1.3-2.8,2.8V51c0,0,7.3-0.7,11.4,1.7l0.1-10.9
		L33.5,37.8z"/>
	<path class="st1" d="M41.1,31.5c-0.2-0.2-0.4-0.3-0.6-0.3c-0.2,0-0.5,0.1-0.6,0.3l-11,10.9h1.9l-0.1,9.9l4.6,2.9
		c3.9-5.1,15-8.4,15-8.4v-4.4H52L41.1,31.5z"/>
	<path class="st2" d="M43.1,49.2V45c0-1-0.8-1.8-1.8-1.8h-1.8c-1,0-1.8,0.8-1.8,1.8v7.3C37.8,52.3,40.3,50.3,43.1,49.2z"/>
	<path class="st3" d="M33.3,28h-4.9c-0.5,0-0.9-0.4-0.9-0.9s0.4-0.9,0.9-0.9h4.9c0.5,0,0.9,0.4,0.9,0.9S33.8,28,33.3,28z"/>
	<path class="st3" d="M42.4,64c-0.3,0-0.6-0.2-0.8-0.4c-6.1-10.1-17.7-14.4-28.1-10.4c-0.5,0.2-1-0.1-1.2-0.5s0.1-1,0.5-1.2
		c11.2-4.3,23.7,0.3,30.3,11.2c0.3,0.4,0.1,1-0.3,1.2C42.7,64,42.6,64,42.4,64z"/>
	<path class="st3" d="M35.3,56.2c-0.2,0-0.5-0.1-0.6-0.3c-0.4-0.3-0.4-0.9,0-1.3c5.8-6,13.4-9.3,21.3-9.3c1,0,1.9,0,3,0.1
		c0.5,0,0.9,0.5,0.8,1s-0.5,0.8-1,0.8c-1-0.1-1.8-0.1-2.8-0.1c-7.5,0-14.6,3.1-20.1,8.7C35.8,56.1,35.5,56.2,35.3,56.2z"/>
	<path class="st3" d="M37.8,53.2c-0.5,0-0.9-0.4-0.9-0.9V45c0-1.5,1.2-2.7,2.7-2.7h1.8c1.5,0,2.7,1.2,2.7,2.7v4.2
		c0,0.5-0.4,0.9-0.9,0.9s-0.9-0.4-0.9-0.9V45c0-0.5-0.4-0.9-0.9-0.9h-1.8c-0.5,0-0.9,0.4-0.9,0.9v7.3C38.7,52.8,38.3,53.2,37.8,53.2
		z"/>
	<path class="st4" d="M33.4,33.9c-0.5,0-0.9-0.4-0.9-0.9v-8.5c0-1-0.9-1.9-1.9-1.9h-8.5c-1,0-1.9,0.9-1.9,1.9V33
		c0,0.5-0.4,0.9-0.9,0.9s-0.9-0.4-0.9-0.9v-8.5c0-2,1.7-3.7,3.7-3.7h8.5c2,0,3.7,1.7,3.7,3.7V33C34.3,33.5,33.9,33.9,33.4,33.9z"/>
	<g>
		<circle class="st2" cx="50.6" cy="20.8" r="4.3"/>
		<path class="st3" d="M50.6,26c-2.9,0-5.2-2.3-5.2-5.2c0-2.9,2.3-5.2,5.2-5.2c2.9,0,5.2,2.3,5.2,5.2C55.8,23.7,53.5,26,50.6,26z
			 M50.6,17.4c-1.9,0-3.4,1.5-3.4,3.4c0,1.9,1.5,3.4,3.4,3.4s3.4-1.5,3.4-3.4C54,18.9,52.5,17.4,50.6,17.4z"/>
		<path class="st3" d="M50.6,13.2c-0.5,0-0.9-0.4-0.9-0.9v-1.4c0-0.5,0.4-0.9,0.9-0.9s0.9,0.4,0.9,0.9v1.4
			C51.5,12.8,51.1,13.2,50.6,13.2z"/>
		<path class="st3" d="M43.2,17.5c-0.2,0-0.3,0-0.5-0.1l-1.2-0.7c-0.4-0.3-0.6-0.8-0.3-1.2c0.2-0.4,0.8-0.6,1.2-0.3l1.2,0.7
			c0.4,0.3,0.6,0.8,0.3,1.2C43.8,17.3,43.5,17.5,43.2,17.5z"/>
		<path class="st3" d="M42,26.7c-0.3,0-0.6-0.2-0.8-0.4c-0.3-0.4-0.1-1,0.3-1.2l1.2-0.7c0.4-0.3,1-0.1,1.2,0.3
			c0.3,0.4,0.1,1-0.3,1.2l-1.2,0.7C42.3,26.7,42.2,26.7,42,26.7z"/>
		<path class="st3" d="M50.6,31.7c-0.5,0-0.9-0.4-0.9-0.9v-1.4c0-0.5,0.4-0.9,0.9-0.9s0.9,0.4,0.9,0.9v1.4
			C51.5,31.3,51.1,31.7,50.6,31.7z"/>
		<path class="st3" d="M59.2,26.7c-0.2,0-0.3,0-0.5-0.1l-1.2-0.7c-0.4-0.2-0.6-0.8-0.3-1.2c0.2-0.4,0.8-0.6,1.2-0.3l1.2,0.7
			c0.4,0.2,0.6,0.8,0.3,1.2C59.8,26.5,59.5,26.7,59.2,26.7z"/>
		<path class="st3" d="M58,17.5c-0.3,0-0.6-0.2-0.8-0.4c-0.3-0.4-0.1-1,0.3-1.2l1.2-0.7c0.4-0.2,1-0.1,1.2,0.3
			c0.3,0.4,0.1,1-0.3,1.2l-1.2,0.7C58.3,17.5,58.2,17.5,58,17.5z"/>
		<ellipse transform="matrix(0.5456 -0.838 0.838 0.5456 7.0783 52.9185)" class="st5" cx="52.3" cy="19.9" rx="0.7" ry="1.4"/>
	</g>
	<ellipse transform="matrix(0.5456 -0.838 0.838 0.5456 -6.2748 36.6633)" class="st5" cx="30.7" cy="24.1" rx="0.7" ry="1.4"/>
	<ellipse transform="matrix(0.5456 -0.838 0.838 0.5456 -11.8575 51.6381)" class="st5" cx="41.7" cy="36.8" rx="0.7" ry="1.4"/>
	<path class="st3" d="M33.5,39.1c-0.5,0-0.9-0.4-0.9-0.9v-7.4c0-0.5,0.4-0.9,0.9-0.9s0.9,0.4,0.9,0.9v7.4
		C34.4,38.7,34,39.1,33.5,39.1z"/>
	<path class="st3" d="M19.3,50.9c-0.5,0-0.9-0.4-0.9-0.9V23.7c0-2,1.7-3.7,3.7-3.7h8.5c2,0,3.7,1.7,3.7,3.7v8.5
		c0,0.5-0.4,0.9-0.9,0.9h-2.8c-0.5,0-0.9-0.4-0.9-0.9s0.4-0.9,0.9-0.9h1.9v-7.6c0-1-0.9-1.9-1.9-1.9h-8.5c-1,0-1.9,0.9-1.9,1.9V50
		C20.2,50.5,19.8,50.9,19.3,50.9z"/>
	<path class="st4" d="M30.4,43.6c-0.2,0-0.5-0.1-0.6-0.3c-0.4-0.4-0.4-0.9,0-1.3l9.5-9.5c0.5-0.5,0.9-0.6,1.2-0.6
		c0.4,0,1,0.2,1.3,0.6l9.1,9.1c0.4,0.4,0.4,0.9,0,1.3s-0.9,0.4-1.3,0l-9.2-9.2L31,43.3C30.9,43.5,30.6,43.6,30.4,43.6z"/>
	<path class="st3" d="M28.9,44.2c-0.2,0-0.5-0.1-0.6-0.3c-0.4-0.4-0.4-0.9,0-1.3l10.9-10.9c0.5-0.5,0.9-0.6,1.2-0.6
		c0.4,0,1,0.2,1.3,0.6l10.9,10.8c0.4,0.4,0.4,0.9,0,1.3c-0.4,0.4-0.9,0.4-1.3,0l-11-10.9L29.5,43.9C29.4,44.1,29.1,44.2,28.9,44.2z"
		/>
	<path class="st3" d="M30.7,53.6c-0.5,0-0.9-0.4-0.9-0.9V41.5c0-0.5,0.4-0.9,0.9-0.9s0.9,0.4,0.9,0.9v11.2
		C31.6,53.2,31.2,53.6,30.7,53.6z"/>
	<path class="st3" d="M50.3,47.7c-0.5,0-0.9-0.4-0.9-0.9v-5.3c0-0.5,0.4-0.9,0.9-0.9s0.9,0.4,0.9,0.9v5.3
		C51.2,47.3,50.8,47.7,50.3,47.7z"/>
</g>
</svg>
