<?xml version="1.0" encoding="utf-8"?>
<!-- Generator: Adobe Illustrator 24.3.0, SVG Export Plug-In . SVG Version: 6.00 Build 0)  -->
<svg version="1.1" id="Layer_1" xmlns="http://www.w3.org/2000/svg" xmlns:xlink="http://www.w3.org/1999/xlink" x="0px" y="0px"
	 viewBox="0 0 280 260" style="enable-background:new 0 0 280 260;" xml:space="preserve">
<style type="text/css">
	.st0{clip-path:url(#SVGID_2_);}
	.st1{fill:#F1F4FB;}
	.st2{opacity:0.3;}
	.st3{fill:#CCD8F2;}
	.st4{fill:#FFFFFF;stroke:#0F143A;stroke-linecap:round;stroke-linejoin:round;stroke-miterlimit:10;}
	.st5{fill:#B0C3EB;}
	.st6{fill:#7E96DD;}
	.st7{fill:#E6EDF8;}
	.st8{fill:#324DC7;}
	.st9{fill:#7E96DD;stroke:#B0C3EB;stroke-miterlimit:10;}
	.st10{fill:#4D6ED0;}
	.st11{fill:#FFFFFF;}
	.st12{fill:none;stroke:#0F143A;stroke-linecap:round;stroke-linejoin:round;stroke-miterlimit:10;}
</style>
<g>
	<defs>
		<rect id="SVGID_1_" width="280" height="260"/>
	</defs>
	<clipPath id="SVGID_2_">
		<use xlink:href="#SVGID_1_"  style="overflow:visible;"/>
	</clipPath>
	<g class="st0">
		<rect class="st1" width="280" height="260"/>
		<g class="st2">
			<rect x="-1" y="175.2" class="st3" width="282" height="85.8"/>
			<line class="st4" x1="-1" y1="174.7" x2="281" y2="174.7"/>
			<g>
				
					<rect x="53.5" y="79.7" transform="matrix(-1 4.488753e-11 -4.488753e-11 -1 141.0143 242.8128)" class="st5" width="33.9" height="83.5"/>
				<rect x="226" y="100.3" class="st5" width="22.7" height="69.9"/>
				<rect x="192.6" y="79.3" class="st5" width="33.9" height="84.9"/>
				<rect x="88.1" y="81.1" class="st5" width="103.8" height="78.8"/>
				<polygon class="st5" points="225.3,63.2 161.8,63.2 162,79.6 231.9,79.6 				"/>
				<polygon class="st5" points="54.8,63.2 118.2,63.2 118,79.6 48.1,79.6 				"/>
				<path class="st3" d="M173.5,57c-4.4-14.5-17.9-25-33.8-25c-15.9,0-29.4,10.5-33.8,25"/>
				<rect x="100.4" y="57.7" class="st3" width="6.1" height="14.4"/>
				<rect x="173" y="58.7" class="st3" width="6.1" height="14.4"/>
				<polygon class="st3" points="188.2,77.2 140.2,53.7 92.9,77.2 				"/>
				<path class="st3" d="M143.4,32c-0.5-1.5-1.8-2.5-3.4-2.5s-3,1.1-3.4,2.5"/>
				<rect x="84.3" y="77.3" class="st5" width="111.4" height="4.1"/>
				<path class="st6" d="M157.9,108.6c0-9.8-7.9-17.8-17.8-17.8c-9.8,0-17.8,8-17.8,17.8l0,48.9l35.5,0L157.9,108.6z"/>
				<circle class="st7" cx="139.7" cy="66.7" r="6.2"/>
				<rect x="97" y="81.4" class="st7" width="19.2" height="5.7"/>
				<rect x="97" y="170.5" class="st7" width="18.7" height="5.7"/>
				<rect x="99.5" y="86.2" class="st7" width="13.5" height="83.6"/>
				<rect x="164.5" y="81.4" class="st7" width="19.2" height="5.7"/>
				<rect x="164.5" y="170.5" class="st7" width="19.2" height="5.3"/>
				<rect x="167.1" y="86.7" class="st7" width="13.5" height="83.6"/>
				
					<rect x="200.3" y="114.7" transform="matrix(-1 1.251166e-07 -1.251166e-07 -1 415.9034 244.7673)" class="st3" width="15.3" height="15.3"/>
				
					<rect x="200.3" y="91.8" transform="matrix(-1 1.251167e-07 -1.251167e-07 -1 415.9034 198.8555)" class="st3" width="15.3" height="15.3"/>
				
					<rect x="200.3" y="137.9" transform="matrix(-1 1.251168e-07 -1.251168e-07 -1 415.9034 291.195)" class="st3" width="15.3" height="15.3"/>
				<line class="st8" x1="105.1" y1="57.6" x2="130.5" y2="57.6"/>
				<line class="st8" x1="148.8" y1="57.6" x2="174.7" y2="57.6"/>
				<g>
					<polygon class="st5" points="106.5,70.4 131.2,58.2 106.5,58.2 					"/>
				</g>
				<rect x="173.5" y="57.7" class="st3" width="6.1" height="14.4"/>
				<g>
					<polygon class="st5" points="173.5,70.4 148.8,58.2 173.5,58.2 					"/>
				</g>
				<rect x="94.7" y="157.6" class="st7" width="91" height="5.5"/>
				<rect x="112.7" y="158.2" class="st3" width="54.8" height="5.5"/>
				<rect x="112.5" y="164.9" class="st5" width="54.3" height="4.7"/>
				<rect x="115.7" y="170.2" class="st9" width="48.5" height="4.7"/>
				<path class="st3" d="M153.3,109.2c0-7.3-5.9-13.2-13.2-13.2c-7.3,0-13.2,5.9-13.2,13.2l0,43.8l26.3,0L153.3,109.2z"/>
				<rect x="182.5" y="170" class="st6" width="69.4" height="4.8"/>
				<rect x="192.6" y="163.3" class="st5" width="31.6" height="5.9"/>
				<rect x="234.4" y="110.8" class="st3" width="5.9" height="48.2"/>
				<rect x="233.7" y="158.8" class="st6" width="7.5" height="1.9"/>
				
					<rect x="31.2" y="100.3" transform="matrix(-1 4.495769e-11 -4.495769e-11 -1 85.1721 270.5835)" class="st5" width="22.7" height="69.9"/>
				<rect x="64.3" y="114.7" class="st3" width="15.3" height="15.3"/>
				<rect x="64.3" y="91.8" class="st3" width="15.3" height="15.3"/>
				<rect x="64.3" y="137.9" class="st3" width="15.3" height="15.3"/>
				
					<rect x="27.9" y="170" transform="matrix(-1 4.494704e-11 -4.494704e-11 -1 125.302 344.7388)" class="st6" width="69.4" height="4.8"/>
				
					<rect x="55.7" y="163.3" transform="matrix(-1 4.490396e-11 -4.490396e-11 -1 143.0778 332.4871)" class="st5" width="31.6" height="5.9"/>
				
					<rect x="39.6" y="110.8" transform="matrix(-1 4.515487e-11 -4.515487e-11 -1 85.053 269.8097)" class="st3" width="5.9" height="48.2"/>
				
					<rect x="38.7" y="158.8" transform="matrix(-1 4.483246e-11 -4.483246e-11 -1 84.9402 319.5905)" class="st6" width="7.5" height="1.9"/>
				<g>
					<path class="st6" d="M71.9,180.2c-4,0-7.3-3.8-7.8-8.8c0,0.3,0,0.7,0,1c0,5.4,3.5,9.9,7.8,9.9c4.3,0,7.8-4.4,7.8-9.9
						c0-0.3,0-0.6-0.1-0.9C79.2,176.4,75.9,180.2,71.9,180.2z"/>
					<path class="st6" d="M92.6,182c-4.6,0-8.3-4.4-8.7-10c0,0.3,0,0.7,0,1c0,6.1,3.9,11.1,8.8,11.1c4.8,0,8.8-5,8.8-11.1
						c0-0.3,0-0.6,0-1C100.9,177.6,97.1,182,92.6,182z"/>
					<path class="st6" d="M54.1,177c-2.9,0-5.3-2.7-5.7-6.3c0,0.3-0.1,0.7-0.1,1c0,4,2.6,7.3,5.8,7.3c3.2,0,5.8-3.3,5.8-7.3
						c0-0.3,0-0.7-0.1-1C59.4,174.3,57,177,54.1,177z"/>
					<path class="st6" d="M208.1,179.9c-4,0-7.3-3.8-7.8-8.7c0,0.3-0.1,0.6-0.1,0.9c0,5.4,3.5,9.9,7.8,9.9s7.8-4.4,7.8-9.9
						c0-0.3,0-0.6,0-1C215.4,176.1,212.1,179.9,208.1,179.9z"/>
					<path class="st6" d="M225.9,177c-2.9,0-5.3-2.7-5.7-6.3c0,0.4-0.1,0.7-0.1,1c0,4,2.6,7.3,5.8,7.3c3.2,0,5.8-3.3,5.8-7.3
						c0-0.3,0-0.7-0.1-1C231.2,174.3,228.8,177,225.9,177z"/>
					<path class="st6" d="M187.3,182c-4.6,0-8.3-4.4-8.7-10c0,0.3,0,0.7,0,1c0,6.1,3.9,11.1,8.8,11.1c4.8,0,8.8-5,8.8-11.1
						c0-0.3,0-0.6,0-1C195.7,177.6,191.9,182,187.3,182z"/>
				</g>
				
					<rect x="163.7" y="86.8" transform="matrix(-1 4.497457e-11 -4.497457e-11 -1 347.8701 176.3094)" class="st6" width="20.5" height="2.7"/>
				<rect x="115.2" y="174.8" class="st6" width="49.1" height="2.5"/>
				<rect x="95.8" y="86.8" class="st6" width="20.5" height="2.7"/>
				<path class="st3" d="M139.9,93.3c9.6,0,17.3,7.8,17.3,17.3v-4.2c0-9.6-7.7-15.6-17.3-15.6c-9.6,0-17.3,6-17.3,15.6v4.2
					C122.6,101.1,130.4,93.3,139.9,93.3z"/>
				<path class="st6" d="M139.9,98.1c6.9,0,12.5,5.6,12.5,12.5v-3c0-6.9-5.6-11.3-12.5-11.3c-6.9,0-12.5,4.3-12.5,11.3v3
					C127.4,103.7,133,98.1,139.9,98.1z"/>
				<polygon class="st1" points="152.7,145.3 126.6,153.4 126.6,157.4 152.9,157.4 				"/>
				<rect x="88" y="81.5" class="st6" width="9.2" height="2.4"/>
				<rect x="184.1" y="81.5" class="st6" width="8" height="2.4"/>
				<rect x="115.8" y="81.5" class="st6" width="48.4" height="2.4"/>
				<rect x="199.5" y="130.4" class="st6" width="16.5" height="2.1"/>
				<g>
					<polygon class="st1" points="216,114.5 210.4,114.5 199.7,120.9 199.7,127 216,117.2 					"/>
					<polygon class="st1" points="204.3,130.4 216,123.4 216,119.7 199.7,129.5 199.7,130.4 					"/>
				</g>
				<rect x="199.5" y="107" class="st6" width="16.5" height="2.1"/>
				<g>
					<polygon class="st1" points="216,91.2 210.4,91.2 199.7,97.7 199.7,103.7 216,93.9 					"/>
					<polygon class="st1" points="204.3,107.1 216,100.1 216,96.4 199.7,106.2 199.7,107.1 					"/>
				</g>
				<rect x="199.5" y="153.6" class="st6" width="16.5" height="2.1"/>
				<g>
					<polygon class="st1" points="216,137.6 210.4,137.6 199.7,144 199.7,150.1 216,140.3 					"/>
					<polygon class="st1" points="204.3,153.5 216,146.5 216,142.8 199.7,152.6 199.7,153.5 					"/>
				</g>
				<rect x="195.1" y="79.9" class="st6" width="31" height="2.1"/>
				<rect x="54.1" y="79.9" class="st6" width="31" height="2.1"/>
				<polygon class="st1" points="178.5,65.9 226,65.9 224.8,62.8 178.5,62.8 				"/>
				<polygon class="st1" points="101,66.4 53.5,66.4 54.7,63.4 101,63.4 				"/>
				<path class="st7" d="M108.5,57.3c6-11.1,17.7-18.6,31.1-18.6s25.2,7.5,31.1,18.6h2.7c-4.4-14.5-17.9-25-33.8-25
					c-15.9,0-29.4,10.5-33.8,25H108.5z"/>
				<rect x="101.1" y="58.2" class="st5" width="4.5" height="2.1"/>
				<polygon class="st6" points="125.6,60.4 106.1,60.4 106.1,58.2 129.1,58.2 				"/>
				
					<rect x="174.4" y="58.2" transform="matrix(-1 4.475297e-11 -4.475297e-11 -1 353.2361 118.5612)" class="st5" width="4.5" height="2.1"/>
				<polygon class="st6" points="154.4,60.4 173.8,60.4 173.8,58.2 150.9,58.2 				"/>
				<rect x="174" y="58.2" class="st5" width="4.5" height="2.1"/>
				<polygon class="st7" points="152,59.6 139.7,54.2 110.9,68 				"/>
				<path class="st1" d="M139.9,62.4c2.5,0,4.5,1.7,5.2,4c0.1-0.4,0.2-0.9,0.2-1.4c0-3-2.4-5.4-5.4-5.4c-3,0-5.4,2.4-5.4,5.4
					c0,0.5,0.1,0.9,0.2,1.4C135.4,64.1,137.5,62.4,139.9,62.4z"/>
				<path class="st7" d="M140,30.2c2,0,3.7,1.1,4.3,3c0.1-0.4,0.2-0.7,0.2-1.1c0-2.4-2-4.1-4.4-4.1c-2.4,0-4.4,1.6-4.4,4.1
					c0,0.4,0.1,0.8,0.2,1.1C136.2,31.3,137.9,30.2,140,30.2z"/>
				<path class="st5" d="M140,71.7c3.2,0,5.9-3,6.7-5.9c0.2,0.6,0.3,1.2,0.3,1.8c0,3.8-3.1,6.9-6.9,6.9c-3.8,0-6.9-3.1-6.9-6.9
					c0-0.6,0.1-1.2,0.3-1.8C134.1,68.7,136.8,71.7,140,71.7z"/>
				<rect x="84.4" y="78" class="st3" width="111" height="1"/>
				<rect x="165.2" y="81.2" class="st1" width="18.3" height="1.5"/>
				<rect x="99.7" y="87.4" class="st3" width="12.5" height="2.3"/>
				<rect x="167.2" y="87.4" class="st3" width="12.5" height="2.3"/>
				<rect x="112.6" y="158.5" class="st1" width="54.3" height="2"/>
				<rect x="112.7" y="164.3" class="st3" width="54.6" height="2"/>
				<rect x="183.5" y="163.6" class="st3" width="41.8" height="2"/>
				<rect x="115.6" y="169.7" class="st5" width="48.9" height="2"/>
				<polygon class="st10" points="122.7,157.7 126.6,157.7 126.6,149.4 122.7,152.4 				"/>
				<polygon class="st10" points="156.9,157.7 153.1,157.7 153.1,149.4 156.9,152.4 				"/>
				<rect x="196" y="170.2" class="st5" width="55.7" height="1.6"/>
				<rect x="164.8" y="81.4" class="st11" width="18.6" height="2.3"/>
				<rect x="97" y="81.4" class="st11" width="18.6" height="2.3"/>
				<rect x="164.8" y="170.3" class="st11" width="18.6" height="2.3"/>
				<rect x="97" y="170.3" class="st11" width="18.6" height="2.3"/>
				<g>
					<polygon class="st1" points="240.7,118.9 234.3,122.7 234.3,125.5 234.9,125.5 240.7,122 					"/>
					<polygon class="st1" points="234.3,120.7 240.7,116.8 240.7,112.2 240,112.2 234.3,115.6 					"/>
				</g>
				<g>
					<polygon class="st1" points="240.7,134.9 234.3,138.8 234.3,141.6 234.9,141.6 240.7,138 					"/>
					<polygon class="st1" points="234.3,136.7 240.7,132.9 240.7,128.2 240,128.2 234.3,131.6 					"/>
				</g>
				<g>
					<polygon class="st1" points="240.7,150.9 234.3,154.7 234.3,157.5 234.9,157.5 240.7,154 					"/>
					<polygon class="st1" points="234.3,152.7 240.7,148.8 240.7,144.2 240,144.2 234.3,147.6 					"/>
				</g>
				
					<rect x="63.9" y="130.4" transform="matrix(-1 4.487198e-11 -4.487198e-11 -1 144.2296 262.8455)" class="st6" width="16.5" height="2.1"/>
				<g>
					<polygon class="st1" points="80.2,114.5 74.6,114.5 63.9,120.9 63.9,127 80.2,117.2 					"/>
					<polygon class="st1" points="68.5,130.4 80.2,123.4 80.2,119.7 63.9,129.5 63.9,130.4 					"/>
				</g>
				
					<rect x="63.9" y="107" transform="matrix(-1 4.492705e-11 -4.492705e-11 -1 144.2296 216.0381)" class="st6" width="16.5" height="2.1"/>
				<g>
					<polygon class="st1" points="80.2,91.2 74.6,91.2 63.9,97.7 63.9,103.7 80.2,93.9 					"/>
					<polygon class="st1" points="68.5,107.1 80.2,100.1 80.2,96.4 63.9,106.2 63.9,107.1 					"/>
				</g>
				
					<rect x="63.9" y="153.6" transform="matrix(-1 4.476141e-11 -4.476141e-11 -1 144.2296 309.2732)" class="st6" width="16.5" height="2.1"/>
				<g>
					<polygon class="st1" points="80.2,137.6 74.6,137.6 63.9,144 63.9,150.1 80.2,140.3 					"/>
					<polygon class="st1" points="68.5,153.5 80.2,146.5 80.2,142.8 63.9,152.6 63.9,153.5 					"/>
				</g>
				
					<rect x="54.6" y="163.6" transform="matrix(-1 4.479427e-11 -4.479427e-11 -1 150.9447 329.328)" class="st3" width="41.8" height="2"/>
				
					<rect x="28.1" y="170.2" transform="matrix(-1 4.492528e-11 -4.492528e-11 -1 111.997 342.095)" class="st5" width="55.7" height="1.6"/>
				<g>
					<polygon class="st1" points="45.6,118.9 39.2,122.7 39.2,125.5 39.7,125.5 45.6,122 					"/>
					<polygon class="st1" points="39.2,120.7 45.6,116.8 45.6,112.2 44.8,112.2 39.2,115.6 					"/>
				</g>
				<g>
					<polygon class="st1" points="45.6,134.9 39.2,138.8 39.2,141.6 39.7,141.6 45.6,138 					"/>
					<polygon class="st1" points="39.2,136.7 45.6,132.9 45.6,128.2 44.8,128.2 39.2,131.6 					"/>
				</g>
				<g>
					<polygon class="st1" points="45.6,150.9 39.2,154.7 39.2,157.5 39.7,157.5 45.6,154 					"/>
					<polygon class="st1" points="39.2,152.7 45.6,148.8 45.6,144.2 44.8,144.2 39.2,147.6 					"/>
				</g>
				<rect x="98.9" y="174.8" class="st6" width="17.3" height="3.4"/>
				<rect x="27.7" y="173.9" class="st6" width="73.5" height="3.4"/>
				<rect x="178.8" y="173.9" class="st6" width="73.5" height="3.4"/>
				<rect x="163.7" y="174.8" class="st6" width="17.3" height="3.4"/>
				<rect x="97" y="87.6" class="st6" width="2.5" height="71.4"/>
				<rect x="112.7" y="87.6" class="st6" width="2.5" height="70.7"/>
				
					<rect x="180.6" y="87.6" transform="matrix(-1 4.379773e-11 -4.379773e-11 -1 363.638 246.5958)" class="st6" width="2.5" height="71.4"/>
				
					<rect x="164.9" y="87.6" transform="matrix(-1 4.602484e-11 -4.602484e-11 -1 332.2043 245.822)" class="st6" width="2.5" height="70.7"/>
				<g>
					<rect x="85.7" y="81.4" class="st6" width="2.5" height="79.7"/>
					<rect x="191.8" y="81.4" class="st6" width="2.5" height="79.7"/>
				</g>
				<rect x="106.4" y="59.1" class="st6" width="2.5" height="10.4"/>
				<rect x="171.6" y="59.1" class="st6" width="2.5" height="10.4"/>
				<g>
					<rect x="179.4" y="63.2" class="st6" width="2.2" height="10.2"/>
					<rect x="98.3" y="63.2" class="st6" width="2.2" height="10.2"/>
				</g>
				<g>
					<rect x="51.8" y="100.4" class="st6" width="2.2" height="60.2"/>
					<rect x="225.9" y="100.4" class="st6" width="2.2" height="60.2"/>
				</g>
				<rect x="94.5" y="83" class="st6" width="2.5" height="6.5"/>
				<rect x="115.2" y="83" class="st6" width="2.5" height="6.5"/>
				<rect x="162.3" y="83" class="st6" width="2.5" height="6.5"/>
				<rect x="183" y="83" class="st6" width="2.5" height="6.5"/>
				<rect x="104.1" y="89.6" class="st1" width="4" height="79.5"/>
				<rect x="172.1" y="89.6" class="st1" width="4" height="79.5"/>
				<rect x="55.4" y="163.5" class="st12" width="37.7" height="5.7"/>
				<rect x="188.3" y="163.5" class="st12" width="37.7" height="5.7"/>
				<path class="st12" d="M144.6,32.3c-0.6-2-2.4-3.4-4.6-3.4c-2.2,0-4,1.4-4.6,3.4"/>
				<rect x="115.6" y="169.5" class="st12" width="48.8" height="5.1"/>
				<g>
					<rect x="28.3" y="169.5" class="st12" width="61.4" height="5.1"/>
					<rect x="190.3" y="169.5" class="st12" width="61.4" height="5.1"/>
				</g>
				<path class="st12" d="M157.4,158l0-49.3c0-9.6-7.8-17.5-17.5-17.5c-9.6,0-17.5,7.8-17.5,17.5l0,49.3"/>
				<path class="st12" d="M152.7,158l0-49.3c0-7-5.7-12.8-12.8-12.8c-7.1,0-12.8,5.7-12.8,12.8l0,49.3"/>
				<path class="st12" d="M173.8,57.1c-4.4-14.5-17.9-25-33.8-25s-29.4,10.5-33.8,25"/>
				<polygon class="st12" points="187.8,77 140,53.8 92.1,77 				"/>
				<rect x="84.5" y="77.1" class="st12" width="111" height="4.1"/>
				<circle class="st12" cx="140" cy="66.2" r="6.1"/>
				<line class="st12" x1="100.9" y1="58.3" x2="100.9" y2="72.4"/>
				<line class="st12" x1="106.1" y1="58.3" x2="106.1" y2="70.1"/>
				<line class="st12" x1="95.8" y1="57.6" x2="131.8" y2="57.6"/>
				<g>
					<g>
						<polyline class="st12" points="179.2,63 225.1,63 231.6,79.2 196.4,79.2 						"/>
					</g>
					<g>
						<polyline class="st12" points="100.7,63 54.9,63 48.3,79.2 83.6,79.2 						"/>
					</g>
				</g>
				<line class="st12" x1="179.1" y1="58.3" x2="179.1" y2="72.4"/>
				<line class="st12" x1="173.8" y1="58.3" x2="173.8" y2="70.1"/>
				<line class="st12" x1="184.1" y1="57.6" x2="148.2" y2="57.6"/>
				<polyline class="st12" points="225.9,100.5 248.7,100.5 248.7,168.8 				"/>
				<g>
					<line class="st12" x1="225.8" y1="79.2" x2="225.8" y2="169.1"/>
					<line class="st12" x1="54.1" y1="79.2" x2="54.1" y2="169.1"/>
				</g>
				<g>
					
						<rect x="200.3" y="114.9" transform="matrix(-1 1.045985e-07 -1.045985e-07 -1 415.6369 244.8116)" class="st12" width="15" height="15"/>
					<line class="st12" x1="207.8" y1="115.3" x2="207.8" y2="129.5"/>
					
						<rect x="200.3" y="91.7" transform="matrix(-1 1.045981e-07 -1.045981e-07 -1 415.6369 198.3913)" class="st12" width="15" height="15"/>
					<line class="st12" x1="207.8" y1="92.1" x2="207.8" y2="106.3"/>
					
						<rect x="200.3" y="138.1" transform="matrix(-1 1.045988e-07 -1.045988e-07 -1 415.637 291.232)" class="st12" width="15" height="15"/>
					<line class="st12" x1="207.8" y1="138.5" x2="207.8" y2="152.7"/>
					<rect x="64.6" y="114.9" class="st12" width="15" height="15"/>
					<line class="st12" x1="72.1" y1="115.3" x2="72.1" y2="129.5"/>
					<rect x="64.6" y="91.7" class="st12" width="15" height="15"/>
					<line class="st12" x1="72.1" y1="92.1" x2="72.1" y2="106.3"/>
					<rect x="64.6" y="138.1" class="st12" width="15" height="15"/>
					<line class="st12" x1="72.1" y1="138.5" x2="72.1" y2="152.7"/>
				</g>
				<polyline class="st12" points="54,100.5 31.3,100.5 31.3,168.8 				"/>
				<rect x="234.4" y="110.9" class="st12" width="5.9" height="48"/>
				<g>
					<line class="st12" x1="234.6" y1="126.5" x2="240.2" y2="126.5"/>
					<line class="st12" x1="234.6" y1="143.2" x2="240.2" y2="143.2"/>
				</g>
				
					<rect x="39.6" y="111" transform="matrix(-1 -4.476653e-11 4.476653e-11 -1 85.0695 269.9386)" class="st12" width="5.9" height="48"/>
				<g>
					<line class="st12" x1="45.3" y1="125.8" x2="39.8" y2="125.8"/>
					<line class="st12" x1="45.3" y1="144.1" x2="39.8" y2="144.1"/>
				</g>
				<g>
					<g>
						<rect x="96.6" y="81.4" class="st12" width="18.9" height="5.6"/>
						<rect x="96.6" y="170" class="st12" width="18.9" height="5.6"/>
						<rect x="99.4" y="87" class="st12" width="13.4" height="82.8"/>
					</g>
					<g>
						<rect x="164.4" y="81.4" class="st12" width="18.9" height="5.6"/>
						<rect x="164.4" y="170" class="st12" width="18.9" height="5.6"/>
						<rect x="167.2" y="87" class="st12" width="13.4" height="82.8"/>
					</g>
				</g>
				<g>
					<line class="st12" x1="88" y1="81.5" x2="88" y2="155.6"/>
					<line class="st12" x1="192" y1="81.5" x2="192" y2="155.6"/>
				</g>
				<rect x="112.8" y="163.5" class="st12" width="54.3" height="5.7"/>
				<rect x="112.7" y="158.1" class="st12" width="54.5" height="5.5"/>
				<path class="st5" d="M56.6,158.8c-1-2.6-1.9-3.1-2.5-3.1H54c-0.5,0-1.5,0.5-2.5,3.3c-1,2.6-3.2,7.4-3.2,10.6
					c0,4,2.6,7.3,5.8,7.3c3.2,0,5.8-3.3,5.8-7.3c0-2.5-1.3-5.9-2.4-8.6L56.6,158.8z"/>
				<path class="st5" d="M75.3,155.7c-1.3-3.5-2.6-4.1-3.3-4.1h-0.2c-0.7,0-2,0.7-3.4,4.4c-1.3,3.5-4.3,10-4.3,14.3
					c0,5.4,3.5,9.9,7.8,9.9c4.3,0,7.8-4.4,7.8-9.9c0-3.4-1.8-8-3.2-11.6L75.3,155.7z"/>
				<path class="st5" d="M96.5,154.4c-1.5-3.9-2.9-4.6-3.7-4.6h-0.3c-0.8,0-2.3,0.7-3.8,4.9c-1.5,4-4.8,11.3-4.8,16.1
					c0,6.1,3.9,11.1,8.8,11.1c4.8,0,8.8-5,8.8-11.1c0-3.8-2-9-3.6-13L96.5,154.4z"/>
				<path class="st5" d="M228.5,159c-1-2.8-2-3.3-2.5-3.3h-0.2c-0.5,0-1.5,0.5-2.5,3.1l-0.9,2.3c-1,2.6-2.4,6.1-2.4,8.6
					c0,4,2.6,7.3,5.8,7.3c3.2,0,5.8-3.3,5.8-7.3C231.7,166.5,229.5,161.7,228.5,159z"/>
				<path class="st5" d="M208.2,151.3l-0.2,0c-0.7,0-2,0.6-3.3,4.1l-1.2,3c-1.4,3.6-3.2,8.2-3.2,11.6c0,5.4,3.5,9.9,7.8,9.9
					c4.3,0,7.8-4.4,7.8-9.9c0-4.3-3-10.8-4.3-14.3C210.3,152,209,151.3,208.2,151.3z"/>
				<path class="st5" d="M187.5,149.5h-0.3c-0.8,0-2.2,0.7-3.7,4.6l-1.3,3.4c-1.6,4-3.6,9.2-3.6,13c0,6.1,3.9,11.1,8.8,11.1
					c4.8,0,8.8-5,8.8-11.1c0-4.9-3.3-12.1-4.8-16.1C189.8,150.3,188.3,149.5,187.5,149.5z"/>
				<path class="st6" d="M183.3,156.6c0,0,2-3.6,4.2-3.6c2.1,0,4,3.6,4,3.6s-0.7-7-4-7S183.3,156.6,183.3,156.6z"/>
				<path class="st6" d="M179.3,172.8c0,0,2,5.4,8.4,5.4c5.9,0,7.8-5.4,7.8-5.4s-1.8,8.1-7.8,8.1
					C181.5,180.9,179.3,172.8,179.3,172.8z"/>
				<path class="st6" d="M204.5,157.8c0,0,1.8-3.2,3.7-3.2c1.9,0,3.5,3.2,3.5,3.2s-0.6-6.2-3.5-6.2S204.5,157.8,204.5,157.8z"/>
				<path class="st6" d="M201,172.1c0,0,1.7,4.8,7.4,4.8c5.2,0,6.9-4.8,6.9-4.8s-1.6,7.2-6.9,7.2S201,172.1,201,172.1z"/>
				<path class="st6" d="M223.2,160.2c0,0,1.3-2.3,2.7-2.3c1.4,0,2.6,2.3,2.6,2.3s-0.5-4.5-2.6-4.5
					C223.8,155.7,223.2,160.2,223.2,160.2z"/>
				<path class="st6" d="M220.6,170.7c0,0,1.3,3.5,5.4,3.5c3.8,0,5.1-3.5,5.1-3.5s-1.1,5.2-5.1,5.2S220.6,170.7,220.6,170.7z"/>
				<path class="st6" d="M96.7,156.6c0,0-2-3.6-4.2-3.6c-2.1,0-4,3.6-4,3.6s0.7-7,4-7C95.7,149.5,96.7,156.6,96.7,156.6z"/>
				<path class="st6" d="M100.7,172.8c0,0-2,5.4-8.4,5.4c-5.9,0-7.8-5.4-7.8-5.4s1.8,8.1,7.8,8.1
					C98.4,180.9,100.7,172.8,100.7,172.8z"/>
				<path class="st6" d="M75.4,157.8c0,0-1.8-3.2-3.7-3.2c-1.9,0-3.5,3.2-3.5,3.2s0.6-6.2,3.5-6.2S75.4,157.8,75.4,157.8z"/>
				<path class="st6" d="M79,172.1c0,0-1.7,4.8-7.4,4.8c-5.2,0-6.9-4.8-6.9-4.8s1.6,7.2,6.9,7.2S79,172.1,79,172.1z"/>
				<path class="st6" d="M56.7,160.2c0,0-1.3-2.3-2.7-2.3c-1.4,0-2.6,2.3-2.6,2.3s0.5-4.5,2.6-4.5C56.1,155.7,56.7,160.2,56.7,160.2
					z"/>
				<path class="st6" d="M59.3,170.7c0,0-1.3,3.5-5.4,3.5c-3.8,0-5.1-3.5-5.1-3.5s1.1,5.2,5.1,5.2S59.3,170.7,59.3,170.7z"/>
				<path class="st12" d="M56.6,158.3c-1-2.6-1.9-3.1-2.5-3.1H54c-0.5,0-1.5,0.5-2.5,3.3c-1,2.6-3.2,7.4-3.2,10.6
					c0,4,2.6,7.3,5.8,7.3s5.8-3.3,5.8-7.3c0-2.5-1.3-5.9-2.4-8.6L56.6,158.3z"/>
				<path class="st12" d="M75.3,155.2c-1.3-3.5-2.6-4.1-3.3-4.1h-0.2c-0.7,0-2,0.7-3.4,4.4c-1.3,3.5-4.3,10-4.3,14.3
					c0,5.4,3.5,9.9,7.8,9.9c4.3,0,7.8-4.4,7.8-9.9c0-3.4-1.8-8-3.2-11.6L75.3,155.2z"/>
				<path class="st12" d="M96.5,153.9c-1.5-3.9-2.9-4.6-3.7-4.6h-0.3c-0.8,0-2.3,0.7-3.8,4.9c-1.5,4-4.8,11.3-4.8,16.1
					c0,6.1,3.9,11.1,8.8,11.1c4.8,0,8.8-5,8.8-11.1c0-3.8-2-9-3.6-13L96.5,153.9z"/>
				<g>
					<path class="st12" d="M223.3,158.3c1-2.6,1.9-3.1,2.5-3.1h0.2c0.5,0,1.5,0.5,2.5,3.3c1,2.6,3.2,7.4,3.2,10.6
						c0,4-2.6,7.3-5.8,7.3c-3.2,0-5.8-3.3-5.8-7.3c0-2.5,1.3-5.9,2.4-8.6L223.3,158.3z"/>
					<path class="st12" d="M204.6,155.2c1.3-3.5,2.6-4.1,3.3-4.1h0.2c0.7,0,2,0.7,3.4,4.4c1.3,3.5,4.3,10,4.3,14.3
						c0,5.4-3.5,9.9-7.8,9.9c-4.3,0-7.8-4.4-7.8-9.9c0-3.4,1.8-8,3.2-11.6L204.6,155.2z"/>
					<path class="st12" d="M183.5,153.9c1.5-3.9,2.9-4.6,3.7-4.6h0.3c0.8,0,2.3,0.7,3.8,4.9c1.5,4,4.8,11.3,4.8,16.1
						c0,6.1-3.9,11.1-8.8,11.1c-4.8,0-8.8-5-8.8-11.1c0-3.8,2-9,3.6-13L183.5,153.9z"/>
				</g>
			</g>
		</g>
	</g>
</g>
</svg>
