<?xml version="1.0" encoding="utf-8"?>
<!-- Generator: Adobe Illustrator 25.2.0, SVG Export Plug-In . SVG Version: 6.00 Build 0)  -->
<svg version="1.1" id="Layer_1" xmlns="http://www.w3.org/2000/svg" xmlns:xlink="http://www.w3.org/1999/xlink" x="0px" y="0px"
	 viewBox="0 0 72 72" style="enable-background:new 0 0 72 72;" xml:space="preserve">
<style type="text/css">
	.st0{fill:#E1EAF8;}
	.st1{fill:none;}
	.st2{fill:#F1F4FB;}
	.st3{fill:#FFFFFF;}
	.st4{fill:#7E96DD;}
	.st5{fill:#363A5A;}
</style>
<g>
	<path class="st0" d="M35.7,9.5h8.6c0.2,0,0.3,0.1,0.3,0.3v4.8c0,0.2-0.1,0.3-0.3,0.3h-8.6C35.7,14.9,35.7,9.5,35.7,9.5z"/>
	<path class="st0" d="M46.7,39.5v-2.4v-4.7l-3.2-6.1l-3.4-1.9L36,22.9c0,0-4.5,0.8-4.5,0.9s-4.7,3.6-4.7,3.6s-1.5,6.3-1.6,6.3
		s0,4,0,5.8H9.1v23.3h53.3V39.5H46.7z"/>
	<g>
		<g>
			<rect class="st1" width="72" height="72"/>
			<rect x="4" y="4" class="st1" width="64" height="64"/>
		</g>
	</g>
	<ellipse transform="matrix(0.5456 -0.838 0.838 0.5456 -6.3134 46.46)" class="st2" cx="39.7" cy="29.1" rx="2.1" ry="3.9"/>
	<ellipse transform="matrix(0.5456 -0.838 0.838 0.5456 -5.6438 47.2887)" class="st3" cx="40.8" cy="28.8" rx="1.1" ry="2.1"/>
	<path class="st2" d="M57.7,57.7h-5.3V55c0-0.2,0.1-0.3,0.3-0.3h4.8c0.2,0,0.3,0.1,0.3,0.3L57.7,57.7L57.7,57.7z"/>
	<rect x="14.3" y="45.2" class="st2" width="5.3" height="3"/>
	<rect x="52.4" y="45.2" class="st2" width="5.3" height="3"/>
	<rect x="14.3" y="54.8" class="st2" width="5.3" height="3"/>
	<path class="st3" d="M33.3,62.5v-9.8c0-1.5,1.2-2.7,2.7-2.7s2.7,1.2,2.7,2.7v9.8H33.3z"/>
	<circle class="st3" cx="36" cy="33.6" r="2.7"/>
	<path class="st4" d="M9.6,61c0,0-0.3,0.6,2.4,0.7h47.6c0,0,2.1,0.2,3.2-0.9v1.9l-1.2,0.8H9.6l-0.9-0.6v-2.1L9.6,61z"/>
	<g>
		<path class="st5" d="M62.2,38.7H47.6v-5.1C47.6,27.2,42.4,22,36,22c-0.1,0-0.2,0-0.3,0v-5.4h8.6c1.2,0,2.1-0.9,2.1-2.1V9.8
			c0-1.2-0.9-2.1-2.1-2.1h-9.5c-0.5,0-0.9,0.4-0.9,0.9v7.1v6.4c-5.4,1-9.5,5.7-9.5,11.4v5.1H9.8c-1.2,0-2.1,0.9-2.1,2.1v21.4
			c0,1.2,0.9,2.1,2.1,2.1h15.5h2.4h4.8h7.1h4.8h2.4h15.5c1.2,0,2.1-0.9,2.1-2.1V40.8C64.3,39.6,63.4,38.7,62.2,38.7z M35.7,9.5h8.6
			c0.2,0,0.3,0.1,0.3,0.3v4.8c0,0.2-0.1,0.3-0.3,0.3h-8.6C35.7,14.9,35.7,9.5,35.7,9.5z M9.5,62.2V40.8c0-0.2,0.1-0.3,0.3-0.3h14.6
			v22H9.8C9.6,62.5,9.5,62.4,9.5,62.2z M33.3,62.5v-9.8c0-1.5,1.2-2.7,2.7-2.7s2.7,1.2,2.7,2.7v9.8H33.3z M44.3,62.5h-3.9v-9.8
			c0-2.5-2-4.5-4.5-4.5s-4.5,2-4.5,4.5v9.8h-3.9H26V33.6c0-5.4,4.4-9.8,9.8-9.8s9.8,4.4,9.8,9.8v28.9H44.3z M62.5,62.2
			c0,0.2-0.1,0.3-0.3,0.3H47.6v-22h14.6c0.2,0,0.3,0.1,0.3,0.3C62.5,40.8,62.5,62.2,62.5,62.2z"/>
		<path class="st5" d="M58.6,43.4h-7.1c-0.5,0-0.9,0.4-0.9,0.9v4.8c0,0.5,0.4,0.9,0.9,0.9h7.1c0.5,0,0.9-0.4,0.9-0.9v-4.8
			C59.5,43.8,59.1,43.4,58.6,43.4z M57.7,48.2h-5.3v-3h5.3V48.2z"/>
		<path class="st5" d="M57.4,53h-4.8c-1.2,0-2.1,0.9-2.1,2.1v3.6c0,0.5,0.4,0.9,0.9,0.9h7.1c0.5,0,0.9-0.4,0.9-0.9v-3.6
			C59.5,53.9,58.6,53,57.4,53z M57.7,57.7h-5.3V55c0-0.2,0.1-0.3,0.3-0.3h4.8c0.2,0,0.3,0.1,0.3,0.3L57.7,57.7L57.7,57.7z"/>
		<path class="st5" d="M20.5,43.4h-7.1c-0.5,0-0.9,0.4-0.9,0.9v4.8c0,0.5,0.4,0.9,0.9,0.9h7.1c0.5,0,0.9-0.4,0.9-0.9v-4.8
			C21.4,43.8,21,43.4,20.5,43.4z M19.6,48.2h-5.3v-3h5.3V48.2z"/>
		<path class="st5" d="M20.5,53h-7.1c-0.5,0-0.9,0.4-0.9,0.9v4.8c0,0.5,0.4,0.9,0.9,0.9h7.1c0.5,0,0.9-0.4,0.9-0.9v-4.8
			C21.4,53.4,21,53,20.5,53z M19.6,57.7h-5.3v-3h5.3V57.7z"/>
		<path class="st5" d="M36,29.1c-2.5,0-4.5,2-4.5,4.5s2,4.5,4.5,4.5s4.5-2,4.5-4.5S38.5,29.1,36,29.1z M36,36.3
			c-1.5,0-2.7-1.2-2.7-2.7s1.2-2.7,2.7-2.7s2.7,1.2,2.7,2.7S37.5,36.3,36,36.3z"/>
	</g>
</g>
</svg>
