<?xml version="1.0" encoding="utf-8"?>
<!-- Generator: Adobe Illustrator 25.2.0, SVG Export Plug-In . SVG Version: 6.00 Build 0)  -->
<svg version="1.1" id="Layer_1" xmlns="http://www.w3.org/2000/svg" xmlns:xlink="http://www.w3.org/1999/xlink" x="0px" y="0px"
	 viewBox="0 0 72 72" style="enable-background:new 0 0 72 72;" xml:space="preserve">
<style type="text/css">
	.st0{fill:#E1EAF8;}
	.st1{fill:#F1F4FB;}
	.st2{fill:#FFFFFF;}
	.st3{fill:#7E96DD;}
	.st4{fill:none;stroke:#363A5A;stroke-width:1.8;stroke-linecap:round;stroke-linejoin:round;stroke-miterlimit:10;}
	.st5{fill:none;}
</style>
<g>
	<g>
		<path class="st0" d="M57.6,20.8c-2.7-0.2-5.3-0.5-8-0.7c0.2-1.7,0.3-3.4,0.5-5.1c-0.2,0-0.5-0.1-0.8-0.1
			C44.1,14.1,20.1,10,20.1,10c-0.9,5.1-1.9,10.2-2.8,15.2c0,0,0,0,0,0.1l0,0.1l0,0.2l0.1,0.3l0.1,0.4l0,0.1l0.1,0.3l0.2,0.5l0.2,0.6
			l0.3,0.8l0.3,0.8l0.3,0.9l0.3,0.9l0.3,0.9l0.3,0.9l0.3,0.9l0.3,0.7l0.2,0.6l0.2,0.5l0.1,0.3l0,0.1l0.2,0.4l0,0.1l0,0.1l-0.1,0.1
			l-0.1,0l-1.3,0.5l-0.1,0l-0.1,0.1l-0.4,0.7L18.9,39l-0.3,0.6l0,0l0,0l0,0l0.1,0l0.9,0.6l0,0.1l0,0.1l0,0.1l0,0.1l0,0.1l-0.1,0l0,0
			l-0.1,0l0,0l-0.1,0l-0.3,0l-0.1,0l-0.1,0l-0.1,0l-0.1,0l0,0l0,0l0,0.1l0,0.1l0,0.1l0,0.1l0.2,0.6l0.2,0.5l0.2,0.6l0.2,0.7l0.3,0.8
			l0.3,0.9l0.3,0.9l0.3,0.9l0.3,0.9l0.3,0.9l0.3,0.8l0.2,0.8l0.2,0.7l0.2,0.6l0.1,0.4l0.1,0.3l0,0.1l0.2,0.7l0.4,0.7l0,0l0,0l0,0
			l-0.1,0.1l0,0l0,0.1l0,0.1l0.1,0.1l0.1,0.1l0.1,0l0.1,0l0.2,0l0.1,0l0.1,0.1l0.1,0.4l0.1,0.1l0.1,0l0.1,0l0,0l0,0.1l0.1,0.4l0,0.1
			l0.4,0.4l0.3,0.3l0.1,0.1l0,0.1l0,0.1l0,0.1l0.1,0l0.1,0l0.1,0l0.1,0l0.1,0.1l0.2,0.2l0.1,0.1l0.1,0.1l0,0l0,0.1l0,0.1l-0.1,0.1
			l0.2,0.3l2.1,2.6l0.1,0.2l0,0l0.1,0l0.2,0l0.2,0l0.2,0.1l0.2,0.2l0.1,0.1l0.4,0.3l0.2,0.1l0.2,0l0.4,0l0.2,0l0.2,0.1l0.2,0.1
			l0.2,0.1l0.2,0l0.1,0l0.1,0l0.1,0l0.1,0l0.1,0L32,62l0.6-0.1l0.3-0.5l0.3-1.1l0-0.4l-0.2-0.2l0-0.1l0.2-0.1l0.1-0.1l0.1-0.4
			l0.2-0.3l0.1-0.3l0.2-0.3l0.1-0.2l0.1-0.4L33.9,57l-0.2-0.7l0.1-0.5l0.3-0.2l0.3-0.2l0.3-0.3l0.1-0.1l0.7-0.9l0.2-0.2l1-0.6
			l0.1-0.1l0-0.1l0.2-0.2l0-0.3l0.1-0.2l0.1-0.2l0.1-0.1l0.3-0.2l0.1-0.1l0-0.3l0.1-0.1l0.3-0.2l0.3-0.2l0.3-0.2l0.1-0.2l0-0.2
			l-0.1-0.2l0.1-0.2l0.2-0.3l0.2-0.3l0.1-0.4l0-0.4l0.1-0.5l0.2-0.6l0.3-0.7l0.2-0.4l0.5-0.3l0.2-0.3l0.2-0.2l0.3-0.3l0.1-0.3
			l0.1-0.3l0-0.3l0-0.5l0-0.2l0.1-0.3l0.4-0.6l0.1-0.2c4.8,0.5,9.6,1,14.4,1.4C57,37.2,57,27.7,57.6,20.8z"/>
		<ellipse transform="matrix(0.5456 -0.838 0.838 0.5456 0.9054 53.6838)" class="st1" cx="50" cy="26" rx="3.3" ry="6.2"/>
		<ellipse transform="matrix(0.5456 -0.838 0.838 0.5456 2.125 55.0869)" class="st2" cx="51.9" cy="25.6" rx="1.8" ry="3.4"/>
		<path class="st2" d="M14.4,17.4"/>
		<path class="st3" d="M33.2,57c-0.6,1-2.3,1.5-2.3,1.5c-2.1,0.4-2.6-1.3-2.6-1.3c-2.4-2.4-3.3-5.5-3.3-5.5
			c-1.3-1.9-4.9-10.9-4.9-10.9c-0.5-1.3-1-0.7-1-0.7c-0.1-0.9,0.8-1.8,0.8-1.8c-0.2-0.1-0.3-0.2-0.4-0.3l-0.2,0.3L18.9,39l0,0l0,0
			l0,0l0.1,0l0.9,0.6l0,0.1l0,0.1l0,0.1l0,0.1l0,0.1l-0.1,0l0,0l-0.1,0l0,0l-0.1,0l-0.3,0l-0.1,0l-0.1,0l-0.1,0l-0.1,0l0,0l0,0
			l0,0.1l0,0.1l0,0.1l0,0.1l0.2,0.6l0.2,0.5l0.2,0.6l0.2,0.7L20,44l0.3,0.9l0.3,0.9l0.3,0.9l0.3,0.9l0.3,0.9l0.3,0.8l0.2,0.8
			l0.2,0.7l0.2,0.6l0.1,0.4l0.1,0.3l0,0.1l0.2,0.7l0.4,0.7l0,0l0,0l0,0l-0.1,0.1l0,0l0,0.1l0,0.1l0.1,0.1l0.1,0.1l0.1,0l0.1,0l0.2,0
			l0.1,0l0.1,0.1l0.1,0.4l0.1,0.1l0.1,0l0.1,0l0,0l0,0.1l0.1,0.4l0,0.1l0.4,0.4l0.3,0.3l0.1,0.1l0,0.1l0,0.1l0,0.1l0.1,0l0.1,0
			l0.1,0l0.1,0l0.1,0.1l0.2,0.2l0.1,0.1l0.1,0.1l0,0l0,0.1l0,0.1l-0.1,0.1l0.2,0.3l2.1,2.6l0.1,0.2l0,0l0.1,0l0.2,0l0.2,0l0.2,0.1
			l0.2,0.2l0.1,0.1l0.4,0.3l0.2,0.1l0.2,0l0.4,0l0.2,0l0.2,0.1l0.2,0.1l0.2,0.1l0.2,0l0.1,0l0.1,0l0.1,0l0.1,0l0.1,0l0.3,0.1
			l0.6-0.1l0.3-0.5l0.3-1.1l0-0.4l-0.2-0.2l0-0.1l0.2-0.1l0.1-0.1l0.1-0.4l0.2-0.3l0.1-0.3l0.2-0.3l0.1-0.2l0.1-0.4l-0.2-0.5
			C33.3,58.2,33.2,57,33.2,57z"/>
		<path class="st3" d="M43.2,41.8c-0.5,0.2-2.6-0.3-2.2,1.4l0.5,0.7l0-0.1l0.1-0.3l0.4-0.6l0.1-0.2c4.8,0.5,9.6,1,14.4,1.4
			c0.1-0.8,0.2-3.8,0.3-4.6C55.3,43.1,44.3,41.3,43.2,41.8z"/>
		<path class="st4" d="M57.6,20.8c-2.7-0.2-5.3-0.5-8-0.7c0.2-1.7,0.3-3.4,0.5-5.1c-0.2,0-0.5-0.1-0.8-0.1
			C44.1,14.1,20.1,10,20.1,10c-0.9,5.1-1.9,10.2-2.8,15.2c0,0,0,0,0,0.1l0,0.1l0,0.2l0.1,0.3l0.1,0.4l0,0.1l0.1,0.3l0.2,0.5l0.2,0.6
			l0.3,0.8l0.3,0.8l0.3,0.9l0.3,0.9l0.3,0.9l0.3,0.9l0.3,0.9l0.3,0.7l0.2,0.6l0.2,0.5l0.1,0.3l0,0.1l0.2,0.4l0,0.1l0,0.1l-0.1,0.1
			l-0.1,0l-1.3,0.5l-0.1,0l-0.1,0.1l-0.4,0.7L18.9,39l-0.3,0.6l0,0l0,0l0,0l0.1,0l0.9,0.6l0,0.1l0,0.1l0,0.1l0,0.1l0,0.1l-0.1,0l0,0
			l-0.1,0l0,0l-0.1,0l-0.3,0l-0.1,0l-0.1,0l-0.1,0l-0.1,0l0,0l0,0l0,0.1l0,0.1l0,0.1l0,0.1l0.2,0.6l0.2,0.5l0.2,0.6l0.2,0.7l0.3,0.8
			l0.3,0.9l0.3,0.9l0.3,0.9l0.3,0.9l0.3,0.9l0.3,0.8l0.2,0.8l0.2,0.7l0.2,0.6l0.1,0.4l0.1,0.3l0,0.1l0.2,0.7l0.4,0.7l0,0l0,0l0,0
			l-0.1,0.1l0,0l0,0.1l0,0.1l0.1,0.1l0.1,0.1l0.1,0l0.1,0l0.2,0l0.1,0l0.1,0.1l0.1,0.4l0.1,0.1l0.1,0l0.1,0l0,0l0,0.1l0.1,0.4l0,0.1
			l0.4,0.4l0.3,0.3l0.1,0.1l0,0.1l0,0.1l0,0.1l0.1,0l0.1,0l0.1,0l0.1,0l0.1,0.1l0.2,0.2l0.1,0.1l0.1,0.1l0,0l0,0.1l0,0.1l-0.1,0.1
			l0.2,0.3l2.1,2.6l0.1,0.2l0,0l0.1,0l0.2,0l0.2,0l0.2,0.1l0.2,0.2l0.1,0.1l0.4,0.3l0.2,0.1l0.2,0l0.4,0l0.2,0l0.2,0.1l0.2,0.1
			l0.2,0.1l0.2,0l0.1,0l0.1,0l0.1,0l0.1,0l0.1,0L32,62l0.6-0.1l0.3-0.5l0.3-1.1l0-0.4l-0.2-0.2l0-0.1l0.2-0.1l0.1-0.1l0.1-0.4
			l0.2-0.3l0.1-0.3l0.2-0.3l0.1-0.2l0.1-0.4L33.9,57l-0.2-0.7l0.1-0.5l0.3-0.2l0.3-0.2l0.3-0.3l0.1-0.1l0.7-0.9l0.2-0.2l1-0.6
			l0.1-0.1l0-0.1l0.2-0.2l0-0.3l0.1-0.2l0.1-0.2l0.1-0.1l0.3-0.2l0.1-0.1l0-0.3l0.1-0.1l0.3-0.2l0.3-0.2l0.3-0.2l0.1-0.2l0-0.2
			l-0.1-0.2l0.1-0.2l0.2-0.3l0.2-0.3l0.1-0.4l0-0.4l0.1-0.5l0.2-0.6l0.3-0.7l0.2-0.4l0.5-0.3l0.2-0.3l0.2-0.2l0.3-0.3l0.1-0.3
			l0.1-0.3l0-0.3l0-0.5l0-0.2l0.1-0.3l0.4-0.6l0.1-0.2c4.8,0.5,9.6,1,14.4,1.4C57,37.2,57,27.7,57.6,20.8z"/>
	</g>
	<g>
		<rect class="st5" width="72" height="72"/>
		<rect x="4" y="4" class="st5" width="64" height="64"/>
	</g>
</g>
</svg>
