<?xml version="1.0" encoding="utf-8"?>
<!-- Generator: Adobe Illustrator 25.2.0, SVG Export Plug-In . SVG Version: 6.00 Build 0)  -->
<svg version="1.1" id="Layer_1" xmlns="http://www.w3.org/2000/svg" xmlns:xlink="http://www.w3.org/1999/xlink" x="0px" y="0px"
	 viewBox="0 0 72 72" style="enable-background:new 0 0 72 72;" xml:space="preserve">
<style type="text/css">
	.st0{fill:none;}
	.st1{fill:#E1EAF8;}
	.st2{fill:#7E96DD;}
	.st3{fill:#F1F4FB;}
	.st4{fill:#FFFFFF;}
	.st5{fill:#CCD8F2;}
	.st6{fill:#1B2264;}
	.st7{fill:#363A5A;}
</style>
<g>
	<g>
		<rect class="st0" width="72" height="72"/>
		<rect x="4" y="4" class="st0" width="64" height="64"/>
	</g>
</g>
<g>
	<g>
		<rect x="8.7" y="14.9" class="st1" width="54.4" height="40"/>
		<rect x="8.9" y="53.3" class="st2" width="54.4" height="1.7"/>
		<g>
			<g>
				<rect x="15.3" y="20" class="st3" width="41.5" height="29"/>
				<line class="st0" x1="56.7" y1="24.5" x2="56.7" y2="44.3"/>
				<line class="st0" x1="15.2" y1="24.5" x2="15.2" y2="44.3"/>
				<line class="st0" x1="19.3" y1="20.2" x2="52.5" y2="20.2"/>
				<polygon class="st4" points="51.4,19.2 57.7,19.2 57.7,25.5 				"/>
				<polygon class="st4" points="51.4,49.7 57.7,49.7 57.7,43.4 				"/>
				<polygon class="st4" points="20.6,19.2 14.3,19.2 14.3,25.5 				"/>
				<polygon class="st4" points="20.6,49.7 14.3,49.7 14.3,43.4 				"/>
				<polygon class="st5" points="56.5,25.7 51.1,20.3 51.6,19.7 57,25.2 				"/>
				<polygon class="st5" points="15.5,25.7 20.9,20.3 20.4,19.7 14.9,25.2 				"/>
				<polygon class="st5" points="56.5,43.3 51.1,48.8 51.6,49.3 57,43.8 				"/>
				<polygon class="st5" points="15.5,43.3 20.9,48.8 20.4,49.3 14.9,43.8 				"/>
				<rect x="20.5" y="49.1" class="st6" width="31.4" height="1"/>
				<path class="st7" d="M43.8,27H28.1c-0.5,0-0.9-0.4-0.9-0.9s0.4-0.9,0.9-0.9h15.7c0.5,0,0.9,0.4,0.9,0.9S44.3,27,43.8,27z"/>
				<path class="st7" d="M49.2,31.1H22.7c-0.5,0-0.9-0.4-0.9-0.9s0.4-0.9,0.9-0.9h26.5c0.5,0,0.9,0.4,0.9,0.9S49.7,31.1,49.2,31.1z"
					/>
				<path class="st7" d="M43.8,35.2H28.1c-0.5,0-0.9-0.4-0.9-0.9s0.4-0.9,0.9-0.9h15.7c0.5,0,0.9,0.4,0.9,0.9S44.3,35.2,43.8,35.2z"
					/>
				<path class="st7" d="M57.7,26.4c-0.2,0-0.5-0.1-0.6-0.3l-6.3-6.3c-0.3-0.3-0.3-0.6-0.2-1c0.1-0.3,0.5-0.6,0.8-0.6h6.3
					c0.5,0,0.9,0.4,0.9,0.9v6.3c0,0.4-0.2,0.7-0.6,0.8C57.9,26.4,57.8,26.4,57.7,26.4z M53.6,20.1l3.2,3.2v-3.2H53.6z"/>
				<path class="st7" d="M57.7,50.6h-6.3c-0.4,0-0.7-0.2-0.8-0.6c-0.1-0.3-0.1-0.7,0.2-1l6.3-6.3c0.3-0.3,0.6-0.3,1-0.2
					c0.3,0.1,0.6,0.5,0.6,0.8v6.3C58.6,50.2,58.2,50.6,57.7,50.6z M53.6,48.8h3.2v-3.2L53.6,48.8z"/>
				<path class="st7" d="M14.3,26.4c-0.1,0-0.2,0-0.3-0.1c-0.3-0.1-0.6-0.5-0.6-0.8v-6.3c0-0.5,0.4-0.9,0.9-0.9h6.3
					c0.4,0,0.7,0.2,0.8,0.6c0.1,0.3,0.1,0.7-0.2,1l-6.3,6.3C14.8,26.3,14.5,26.4,14.3,26.4z M15.2,20.1v3.2l3.2-3.2H15.2z"/>
				<path class="st7" d="M20.6,50.6h-6.3c-0.5,0-0.9-0.4-0.9-0.9v-6.3c0-0.4,0.2-0.7,0.6-0.8c0.3-0.1,0.7-0.1,1,0.2l6.3,6.3
					c0.3,0.3,0.3,0.6,0.2,1C21.3,50.4,21,50.6,20.6,50.6z M15.2,48.8h3.2l-3.2-3.2V48.8z"/>
				<path class="st7" d="M56.8,45.2c-0.5,0-0.9-0.4-0.9-0.9V24.7c0-0.5,0.4-0.9,0.9-0.9s0.9,0.4,0.9,0.9v19.6
					C57.7,44.8,57.3,45.2,56.8,45.2z"/>
				<path class="st7" d="M15.3,45.2c-0.5,0-0.9-0.4-0.9-0.9V24.7c0-0.5,0.4-0.9,0.9-0.9s0.9,0.4,0.9,0.9v19.6
					C16.2,44.8,15.8,45.2,15.3,45.2z"/>
				<path class="st7" d="M52.1,20.8H20c-0.5,0-0.9-0.4-0.9-0.9S19.5,19,20,19h32.1c0.5,0,0.9,0.4,0.9,0.9S52.6,20.8,52.1,20.8z"/>
				<path class="st7" d="M51.8,50H20c-0.5,0-0.9-0.4-0.9-0.9s0.4-0.9,0.9-0.9h31.8c0.5,0,0.9,0.4,0.9,0.9S52.3,50,51.8,50z"/>
				<path class="st7" d="M36.9,53.7h-1.8c-0.5,0-0.9-0.4-0.9-0.9s0.4-0.9,0.9-0.9h1.8c0.5,0,0.9,0.4,0.9,0.9S37.4,53.7,36.9,53.7z"
					/>
			</g>
			<g>
				<g>
					<polygon class="st4" points="36,40.5 38.1,43 41.4,43.1 40.7,46.3 42.7,48.9 39.8,50.4 39,53.6 36,52.2 33,53.6 32.2,50.4 
						29.3,48.9 31.3,46.3 30.6,43.1 33.9,43 					"/>
					<path class="st7" d="M39.6,54.9L36,53.2l-3.6,1.7l-1-3.9l-3.5-1.8l2.4-3.1l-0.8-3.9l4-0.1l2.5-3l2.5,3l4,0.1l-0.8,3.9l2.4,3.1
						L40.6,51L39.6,54.9z M36,51.2l2.4,1.1l0.6-2.5l2.3-1.2l-1.6-2.1l0.6-2.5l-2.6-0.1l-1.7-2l-1.7,2L31.7,44l0.6,2.5l-1.6,2.1
						l2.3,1.2l0.6,2.5L36,51.2z"/>
				</g>
				<polygon class="st1" points="35.4,52.5 33,53.6 32.4,51.1 30,59.8 32.6,58.6 34.2,61 36,54.6 				"/>
				<polygon class="st1" points="39,53.7 36,52.3 35.4,52.6 37.8,60.9 39.4,58.5 42,59.7 39.6,51.1 				"/>
				<path class="st2" d="M39.9,51.1l-0.8,3.2l-3-1.4L32.9,54l-0.4-2.2l-0.8,2.7l0.3,1.2c0,0.1,0.1,0.2,0.2,0.3c0.1,0,0.1,0,0.2,0
					c0.1,0,0.1,0,0.2,0l3.6-1.6l3.6,1.6c0.1,0,0.2,0,0.3,0c0.1-0.1,0.2-0.1,0.2-0.3l0.3-1.3C40.3,53.3,39.9,51.1,39.9,51.1z"/>
				<path class="st7" d="M39,54.5c-0.1,0-0.3,0-0.4-0.1L36,53.2l-2.6,1.2c-0.2,0.1-0.5,0.1-0.8,0c-0.2-0.1-0.4-0.3-0.5-0.6L31.4,51
					l-2.5-1.3c-0.2-0.1-0.4-0.3-0.5-0.6c-0.1-0.3,0-0.5,0.2-0.7l1.7-2.3l-0.6-2.8c-0.1-0.3,0-0.5,0.2-0.7s0.4-0.3,0.7-0.3l2.9-0.1
					l1.8-2.2c0.2-0.2,0.4-0.3,0.7-0.3l0,0c0.3,0,0.5,0.1,0.7,0.3l1.8,2.2l2.9,0.1c0.3,0,0.5,0.1,0.7,0.3c0.2,0.2,0.2,0.5,0.2,0.7
					l-0.6,2.8l1.7,2.3c0.2,0.2,0.2,0.5,0.2,0.7c-0.1,0.3-0.2,0.5-0.5,0.6L40.6,51l-0.7,2.8c-0.1,0.3-0.2,0.5-0.5,0.6
					C39.3,54.5,39.1,54.5,39,54.5z M36,51.3c0.1,0,0.3,0,0.4,0.1l2,0.9l0.5-2.1c0.1-0.2,0.2-0.5,0.5-0.6l1.9-1L40,46.8
					c-0.2-0.2-0.2-0.5-0.2-0.7l0.5-2.1l-2.2-0.1c-0.3,0-0.5-0.1-0.7-0.3L36,41.9l-1.4,1.7c-0.2,0.2-0.4,0.3-0.7,0.3L31.7,44l0.5,2.1
					c0.1,0.3,0,0.5-0.2,0.7l-1.3,1.7l1.9,1c0.2,0.1,0.4,0.3,0.5,0.6l0.5,2.1l2-0.9C35.7,51.3,35.9,51.3,36,51.3z"/>
				<path class="st7" d="M34.2,61.9c-0.3,0-0.6-0.1-0.7-0.4l-1.2-1.8l-1.9,0.9c-0.3,0.1-0.7,0.1-1-0.1s-0.4-0.6-0.3-0.9l2.4-8.7
					c0.1-0.4,0.5-0.7,0.9-0.7c0,0,0,0,0,0c0.4,0,0.8,0.3,0.9,0.7l0.3,1.4l1.4-0.6c0.2-0.1,0.5-0.1,0.8,0c0.2,0.1,0.4,0.3,0.5,0.6
					l0.6,2.1c0,0.2,0,0.3,0,0.5l-1.8,6.4c-0.1,0.3-0.4,0.6-0.7,0.6C34.3,61.9,34.2,61.9,34.2,61.9z M32.6,57.7
					c0.3,0,0.6,0.1,0.7,0.4l0.5,0.8l1.2-4.3l-0.2-0.8l-1.4,0.7c-0.2,0.1-0.5,0.1-0.8,0c-0.1,0-0.1-0.1-0.2-0.1l-1.1,3.9l0.8-0.4
					C32.3,57.7,32.5,57.7,32.6,57.7z"/>
				<path class="st7" d="M37.8,61.7c0,0-0.1,0-0.1,0c-0.3-0.1-0.6-0.3-0.7-0.6l-2.4-8.3c-0.1-0.4,0.1-0.9,0.5-1.1l0.6-0.3
					c0.2-0.1,0.5-0.1,0.8,0l2,0.9l0.3-1.5c0.1-0.4,0.4-0.7,0.9-0.7c0,0,0,0,0,0c0.4,0,0.8,0.3,0.9,0.7l2.4,8.6
					c0.1,0.3,0,0.7-0.3,0.9c-0.3,0.2-0.6,0.3-1,0.1l-1.9-0.9l-1.2,1.8C38.4,61.6,38.1,61.7,37.8,61.7z M36.6,53.5l1.5,5.2l0.5-0.8
					c0.2-0.4,0.7-0.5,1.1-0.3l0.8,0.4l-1-3.7c-0.1,0-0.1,0.1-0.2,0.1c-0.2,0.1-0.5,0.1-0.8,0L36.6,53.5z"/>
			</g>
		</g>
		<path class="st7" d="M63.1,55.9h-22c-0.5,0-0.9-0.4-0.9-0.9s0.4-0.9,0.9-0.9h21.1V15.9H9.6v38.2h21.1c0.5,0,0.9,0.4,0.9,0.9
			s-0.4,0.9-0.9,0.9h-22c-0.5,0-0.9-0.4-0.9-0.9V15c0-0.5,0.4-0.9,0.9-0.9h54.4c0.5,0,0.9,0.4,0.9,0.9v40
			C64,55.5,63.6,55.9,63.1,55.9z"/>
	</g>
	<g>
		<ellipse transform="matrix(0.5456 -0.838 0.838 0.5456 2.315 54.1431)" class="st3" cx="51.1" cy="24.9" rx="1.6" ry="3.1"/>
		<ellipse transform="matrix(0.5456 -0.838 0.838 0.5456 3.1706 54.7765)" class="st4" cx="52.1" cy="24.5" rx="0.8" ry="1.7"/>
	</g>
</g>
</svg>
